<?xml version="1.0" encoding="UTF-8" standalone="no"?>
<svg
   height="48px"
   viewBox="0 0 24 24"
   width="48px"
   fill="#000000"
   version="1.1"
   id="svg6"
   sodipodi:docname="add_news.svg"
   inkscape:version="1.1.1 (3bf5ae0d25, 2021-09-20)"
   xmlns:inkscape="http://www.inkscape.org/namespaces/inkscape"
   xmlns:sodipodi="http://sodipodi.sourceforge.net/DTD/sodipodi-0.dtd"
   xmlns="http://www.w3.org/2000/svg"
   xmlns:svg="http://www.w3.org/2000/svg">
  <defs
     id="defs10" />
  <sodipodi:namedview
     id="namedview8"
     pagecolor="#ffffff"
     bordercolor="#666666"
     borderopacity="1.0"
     inkscape:pageshadow="2"
     inkscape:pageopacity="0.0"
     inkscape:pagecheckerboard="0"
     showgrid="false"
     inkscape:zoom="13.125"
     inkscape:cx="23.961905"
     inkscape:cy="23.580952"
     inkscape:window-width="3840"
     inkscape:window-height="2089"
     inkscape:window-x="0"
     inkscape:window-y="0"
     inkscape:window-maximized="1"
     inkscape:current-layer="svg6" />
  <path
     d="M0 0h24v24H0V0z"
     fill="none"
     id="path2" />
  <path
     d="M14.59 2.59c-.38-.38-.89-.59-1.42-.59H6c-1.1 0-2 .9-2 2v16c0 1.1.89 2 1.99 2H18c1.1 0 2-.9 2-2V8.83c0-.53-.21-1.04-.59-1.41l-4.82-4.83zM15 16h-2v2c0 .55-.45 1-1 1s-1-.45-1-1v-2H9c-.55 0-1-.45-1-1s.45-1 1-1h2v-2c0-.55.45-1 1-1s1 .45 1 1v2h2c.55 0 1 .45 1 1s-.45 1-1 1zm-2-8V3.5L18.5 9H14c-.55 0-1-.45-1-1z"
     id="path4" />
  <path
     style="fill:#ff6600;stroke-width:0.0761905"
     d="M 23.366294,37.836054 C 22.869974,37.664637 22.477793,37.304187 22.239033,36.8 22.062171,36.426523 22.058617,36.3754 22.057887,34.194595 l -7.44e-4,-2.224453 -2.304762,-0.02317 c -2.194214,-0.02206 -2.31938,-0.03107 -2.609524,-0.187918 -0.877628,-0.47444 -1.29697,-1.464862 -0.999462,-2.360577 0.172279,-0.518682 0.505958,-0.893563 1.020065,-1.146019 L 17.6,28.038095 l 2.228571,-0.02508 2.228572,-0.02508 0.0017,-2.222535 c 0.0018,-2.430707 0.01583,-2.519706 0.483572,-3.073754 0.70362,-0.83345 2.211604,-0.83345 2.915223,0 0.467741,0.554048 0.481743,0.643047 0.483573,3.073754 l 0.0017,2.222535 2.228572,0.02508 2.228571,0.02508 0.43654,0.214367 c 1.493206,0.733251 1.483304,2.731081 -0.01749,3.529485 -0.24001,0.127681 -0.497062,0.144179 -2.571429,0.165029 l -2.304762,0.02317 -7.62e-4,2.224453 c -7.62e-4,2.169951 -0.0051,2.233786 -0.17852,2.605405 -0.233983,0.501397 -0.699975,0.913444 -1.201452,1.062366 -0.507277,0.150646 -0.695474,0.146505 -1.195846,-0.02631 z"
     id="path86"
     transform="scale(0.5)" />
  <path
     style="fill:#ff0000;stroke-width:0.0761905"
     d="m 27.2,17.763592 c -0.209524,-0.09778 -0.508154,-0.318881 -0.663623,-0.491344 -0.521529,-0.578534 -0.52096,-0.572111 -0.498893,-5.63692 l 0.01966,-4.5119499 5.409322,5.4097399 5.409323,5.409739 -4.647418,-7.62e-4 -4.647418,-7.62e-4 L 27.2,17.763557 Z"
     id="path125"
     transform="scale(0.5)" />
  <path
     style="fill:#ffcc00;stroke-width:0.0761905"
     d="m 23.237541,37.725614 c -0.209829,-0.09771 -0.496975,-0.309169 -0.638103,-0.469904 -0.468896,-0.534043 -0.48353,-0.61914 -0.525187,-3.053788 l -0.03794,-2.217127 -1.144557,-0.04954 c -0.629506,-0.02725 -1.64482,-0.05029 -2.256253,-0.05121 -1.289281,-0.0019 -1.538609,-0.07675 -2.014337,-0.604356 -0.385721,-0.427787 -0.506882,-0.738247 -0.506882,-1.298819 0,-0.768493 0.394159,-1.370337 1.149995,-1.755936 0.242261,-0.123593 0.449862,-0.148779 1.227922,-0.148973 0.515003,-1.29e-4 1.522451,-0.02247 2.238774,-0.04964 l 1.302405,-0.04941 0.05132,-2.18061 c 0.02823,-1.199336 0.08728,-2.310854 0.131237,-2.47004 0.102199,-0.370134 0.554414,-0.872457 0.945965,-1.050783 0.411835,-0.187564 1.264356,-0.187564 1.67619,0 0.393248,0.179099 0.846689,0.684158 0.945861,1.053536 0.04283,0.159518 0.101418,1.270551 0.1302,2.468962 l 0.05233,2.17893 1.30247,0.04941 c 0.716359,0.02717 1.736504,0.04951 2.266989,0.04964 l 0.964519,2.33e-4 0.4831,0.32381 c 0.641186,0.42977 0.897838,0.878996 0.900368,1.575945 0.0022,0.605678 -0.180262,1.015338 -0.641652,1.440633 -0.4349,0.400876 -0.715574,0.468203 -1.953978,0.468711 -0.569528,2.29e-4 -1.550371,0.02271 -2.179652,0.04995 l -1.144146,0.04952 -0.03924,2.217144 c -0.04307,2.433675 -0.05836,2.522671 -0.524705,3.053807 -0.54506,0.620788 -1.427392,0.81247 -2.163021,0.469904 z"
     id="path201"
     transform="scale(0.5)" />
  <path
     style="fill:#ffcc00;stroke-width:0.0761905"
     d="m 27.341942,17.796382 c -0.17336,-0.07872 -0.458436,-0.272534 -0.633503,-0.430696 -0.605951,-0.54744 -0.572413,-0.284756 -0.597522,-4.679972 -0.01233,-2.158095 -0.01233,-4.2583287 0,-4.6671858 l 0.02242,-0.7433765 5.33313,5.3338523 5.333129,5.333853 -4.571225,-0.0017 c -4.308032,-0.0016 -4.589372,-0.0099 -4.886425,-0.144802 z"
     id="path277"
     transform="scale(0.5)" />
  <path
     style="fill:#d40000;stroke-width:0.0761905"
     d="m 23.619048,37.836354 c -0.533524,-0.136505 -1.063572,-0.551431 -1.309886,-1.025392 -0.133907,-0.257663 -0.238546,-1.88139 -0.247436,-3.839533 l -0.0046,-1.009524 -0.209524,-0.0052 c -4.091137,-0.100813 -4.395336,-0.119274 -4.720029,-0.286448 -0.176016,-0.09062 -0.44174,-0.32417 -0.590497,-0.518992 -0.751418,-0.984102 -0.444618,-2.27447 0.681955,-2.868231 0.300102,-0.158169 1.114081,-0.208182 4.503928,-0.276731 L 22.036429,28 l 0.05053,-1.771429 c 0.07616,-2.670071 0.10124,-2.894055 0.369416,-3.298928 0.12643,-0.190873 0.383329,-0.434312 0.580459,-0.550043 0.30595,-0.179619 0.436659,-0.207658 0.969145,-0.207896 0.552386,-2.47e-4 0.653742,0.02337 0.988462,0.23031 0.223092,0.137928 0.460317,0.371876 0.590347,0.582195 l 0.217383,0.35161 0.08354,2.321091 0.08354,2.321091 0.913054,0.0491 c 0.502179,0.027 1.513241,0.04909 2.246802,0.04909 h 1.333749 l 0.370486,0.237741 c 0.203768,0.130757 0.488167,0.375224 0.631999,0.543259 0.728388,0.850958 0.424046,2.265269 -0.600966,2.792759 -0.400259,0.20598 -0.05647,0.183437 -4.662013,0.305697 l -0.23574,0.0063 -0.05179,2 c -0.06432,2.483708 -0.08483,2.649132 -0.382791,3.086897 -0.399054,0.586291 -1.28081,0.949299 -1.912986,0.787552 z"
     id="path316"
     transform="scale(0.5)" />
</svg>
